<?xml version="1.0" encoding="utf-8"?>
<!-- Generator: Adobe Illustrator 27.9.0, SVG Export Plug-In . SVG Version: 6.00 Build 0)  -->
<svg version="1.1" id="Livello_1" xmlns="http://www.w3.org/2000/svg" xmlns:xlink="http://www.w3.org/1999/xlink" x="0px" y="0px"
	 viewBox="0 0 16 16" enable-background="new 0 0 16 16" xml:space="preserve">
<g>
	<circle fill="none" cx="7.4" cy="7.18" r="5.78"/>
	<g>
		<g>
			<path fill="#0485DB" d="M14.13,15.6c-0.33,0-0.65-0.13-0.88-0.37l-2.29-2.29c-1.07,0.67-2.3,1.02-3.57,1.02
				c-3.74,0-6.78-3.04-6.78-6.78S3.66,0.4,7.4,0.4s6.78,3.04,6.78,6.78c0,1.46-0.48,2.9-1.37,4.07l2.21,2.21
				c0.49,0.49,0.49,1.28,0,1.77C14.78,15.47,14.47,15.6,14.13,15.6z M7.4,2.4c-2.64,0-4.78,2.14-4.78,4.78s2.14,4.78,4.78,4.78
				s4.78-2.14,4.78-4.78S10.03,2.4,7.4,2.4z"/>
		</g>
		<g>
			<path fill="#FFFFFF" d="M7.4,0.65c3.6,0,6.53,2.93,6.53,6.53c0,1.55-0.54,2.97-1.45,4.09l2.37,2.37c0.39,0.39,0.39,1.02,0,1.41
				c-0.2,0.2-0.45,0.29-0.71,0.29s-0.51-0.1-0.71-0.29L11,12.62c-1.03,0.69-2.27,1.09-3.6,1.09c-3.6,0-6.53-2.93-6.53-6.53
				S3.79,0.65,7.4,0.65 M7.4,12.21c2.77,0,5.03-2.26,5.03-5.03c0-2.77-2.26-5.03-5.03-5.03S2.37,4.41,2.37,7.18
				C2.37,9.96,4.62,12.21,7.4,12.21 M7.4,0.15c-3.88,0-7.03,3.15-7.03,7.03s3.15,7.03,7.03,7.03c1.25,0,2.46-0.33,3.53-0.95
				l2.15,2.15c0.28,0.28,0.66,0.44,1.06,0.44s0.78-0.16,1.06-0.44c0.28-0.28,0.44-0.66,0.44-1.06c0-0.4-0.16-0.78-0.44-1.06
				l-2.06-2.06c0.83-1.18,1.29-2.6,1.29-4.05C14.43,3.31,11.27,0.15,7.4,0.15L7.4,0.15z M7.4,11.71c-2.5,0-4.53-2.03-4.53-4.53
				S4.9,2.65,7.4,2.65s4.53,2.03,4.53,4.53S9.89,11.71,7.4,11.71L7.4,11.71z"/>
		</g>
	</g>
	<g>
		<path fill="#E6332A" d="M9.91,6.58H4.88c-0.14,0-0.25,0.11-0.25,0.25v3.41c0,0.14,0.11,0.25,0.25,0.25h5.04
			c0.14,0,0.25-0.11,0.25-0.25V6.83C10.16,6.7,10.05,6.58,9.91,6.58z"/>
		<path fill="#E6332A" d="M6.18,5.25c0-0.67,0.54-1.21,1.21-1.21c0.67,0,1.21,0.54,1.21,1.21c0,0.28,0.22,0.5,0.5,0.5
			s0.5-0.22,0.5-0.5c0-1.22-0.99-2.21-2.21-2.21S5.18,4.03,5.18,5.25v1.33h1V5.25z"/>
	</g>
</g>
</svg>
