<?xml version="1.0" encoding="utf-8"?>
<!-- Generator: Adobe Illustrator 27.9.0, SVG Export Plug-In . SVG Version: 6.00 Build 0)  -->
<svg version="1.1" id="Livello_1" xmlns="http://www.w3.org/2000/svg" xmlns:xlink="http://www.w3.org/1999/xlink" x="0px" y="0px"
	 viewBox="0 0 32 32" enable-background="new 0 0 32 32" xml:space="preserve">
<g>
	<circle fill="none" cx="14.79" cy="14.36" r="11.56"/>
	<g>
		<path fill="#0485DB" d="M28.27,30.94c-0.6,0-1.17-0.23-1.59-0.66l-4.72-4.72c-2.15,1.38-4.62,2.11-7.17,2.11
			c-7.34,0-13.31-5.97-13.31-13.31c0-7.34,5.97-13.31,13.31-13.31S28.1,7.03,28.1,14.36c0,2.95-1,5.84-2.81,8.17l4.57,4.57
			c0.88,0.88,0.88,2.3,0,3.18C29.43,30.71,28.87,30.94,28.27,30.94z M14.79,4.56c-5.41,0-9.81,4.4-9.81,9.81s4.4,9.81,9.81,9.81
			s9.81-4.4,9.81-9.81S20.2,4.56,14.79,4.56z"/>
		<path fill="#FFFFFF" d="M14.79,1.31c7.2,0,13.06,5.86,13.06,13.06c0,3.1-1.09,5.94-2.9,8.19l4.73,4.73c0.78,0.78,0.78,2.05,0,2.83
			c-0.39,0.39-0.9,0.59-1.41,0.59c-0.51,0-1.02-0.2-1.41-0.59l-4.86-4.86c-2.07,1.37-4.54,2.18-7.2,2.18
			c-7.2,0-13.06-5.86-13.06-13.06C1.73,7.16,7.59,1.31,14.79,1.31 M14.79,24.42c5.55,0,10.06-4.51,10.06-10.06
			c0-5.55-4.51-10.06-10.06-10.06c-5.55,0-10.06,4.51-10.06,10.06C4.73,19.91,9.24,24.42,14.79,24.42 M14.79,0.81
			c-7.48,0-13.56,6.08-13.56,13.56c0,7.48,6.08,13.56,13.56,13.56c2.53,0,4.99-0.7,7.13-2.04l4.58,4.58
			c0.47,0.47,1.1,0.73,1.77,0.73s1.3-0.26,1.77-0.73c0.97-0.97,0.97-2.56,0-3.54l-4.42-4.42c1.77-2.34,2.73-5.22,2.73-8.14
			C28.35,6.89,22.27,0.81,14.79,0.81L14.79,0.81z M14.79,23.92c-5.27,0-9.56-4.29-9.56-9.56c0-5.27,4.29-9.56,9.56-9.56
			s9.56,4.29,9.56,9.56C24.35,19.64,20.06,23.92,14.79,23.92L14.79,23.92z"/>
	</g>
	<g>
		<path fill="#E6332A" d="M19.83,13.17H9.75c-0.28,0-0.5,0.22-0.5,0.5v6.82c0,0.28,0.22,0.5,0.5,0.5h10.07c0.28,0,0.5-0.22,0.5-0.5
			v-6.82C20.33,13.39,20.1,13.17,19.83,13.17z"/>
		<path fill="#E6332A" d="M12.36,10.51c0-1.34,1.09-2.43,2.43-2.43c1.34,0,2.43,1.09,2.43,2.43c0,0.55,0.45,1,1,1s1-0.45,1-1
			c0-2.44-1.99-4.43-4.43-4.43s-4.43,1.99-4.43,4.43v2.66h2V10.51z"/>
	</g>
</g>
</svg>
